<svg xmlns="http://www.w3.org/2000/svg" xmlns:xlink="http://www.w3.org/1999/xlink" width="967" height="645" viewBox="0 0 967 645"><defs><style>.a{fill:none;}.b{clip-path:url(#a);}.c{opacity:0.05;}.d{fill:url(#b);}.aa,.ac,.av,.bu,.e,.f,.m,.x,.y,.z{opacity:0.5;}.e,.f{mix-blend-mode:screen;}.aa,.ab,.ac,.ad,.af,.at,.au,.av,.ay,.az,.bj,.bk,.bl,.bm,.bu,.bv,.e,.f,.h,.i,.j,.m,.t,.v,.x,.y,.z{isolation:isolate;}.e{fill:url(#c);}.f{fill:url(#d);}.g{fill:#343434;}.h{fill:#5b5b5b;}.ab,.h,.j{opacity:0.76;}.aa,.ab,.ac,.ad,.af,.at,.au,.av,.ay,.az,.bj,.bk,.bl,.bu,.h,.i,.j,.m,.t,.v,.x,.y,.z{mix-blend-mode:multiply;}.i{opacity:0.53;fill:url(#e);}.j{fill:#636363;}.k{fill:#fe9083;}.l{fill:url(#f);}.m{fill:url(#g);}.n{fill:url(#h);}.o{fill:url(#j);}.p{fill:url(#k);}.q{fill:#cb4d7a;}.r{fill:#ee8183;}.s{fill:url(#l);}.at,.au,.bi,.bj,.t{opacity:0.6;}.t{fill:url(#m);}.u{fill:#e28183;}.v{opacity:0.91;fill:url(#o);}.w{fill:url(#r);}.x{fill:url(#u);}.y{fill:#4e175a;}.z{fill:url(#v);}.aa{fill:url(#y);}.ab,.ac,.ad{fill:url(#ac);}.ad,.bk{opacity:0.3;}.ae{fill:#fff;}.af,.bf,.bi{fill:#852c77;}.af{opacity:0.21;}.ag{fill:url(#aq);}.ah{fill:#38368e;}.ai{fill:url(#as);}.aj{fill:url(#at);}.ak{fill:#ffebed;}.al{fill:#7f9ec9;}.am{fill:#131163;}.an{fill:#c6659c;}.ao{fill:#cb5f7d;}.ap{fill:#9f4a8b;}.aq{fill:#ffbcaf;}.ar{fill:url(#av);}.as{fill:#d2726c;}.at{fill:url(#aw);}.au{fill:url(#ax);}.av{fill:url(#ay);}.aw{fill:url(#az);}.ax{fill:url(#ba);}.ay,.az{opacity:0.8;}.ay{fill:url(#bc);}.az{fill:url(#bd);}.ba{fill:#2b2b2b;}.bb{fill:#0b5da4;}.bc{fill:url(#be);}.bd{fill:url(#bf);}.be{fill:url(#bg);}.bg{fill:#181818;}.bh{fill:#6b1d65;}.bj{fill:url(#bh);}.bk{fill:url(#bi);}.bl{fill:#d1d4fb;}.bm,.bv{mix-blend-mode:soft-light;}.bn{fill:#e0ffff;}.bo,.bt{fill:url(#bm);}.bp{fill:url(#bn);}.bq{fill:#ee5656;}.br,.bs,.bt,.bu,.bv{fill-rule:evenodd;}.br{fill:url(#bp);}.bs{fill:url(#bq);}.bu{fill:#601734;}.bv{fill:#b3d9ff;}</style><clipPath id="a"><rect class="a" width="967" height="645"/></clipPath><linearGradient id="b" x1="0.5" y1="1" x2="0.5" gradientUnits="objectBoundingBox"><stop offset="0" stop-color="#1e1e1e"/><stop offset="1" stop-color="#232323"/></linearGradient><radialGradient id="c" cx="0.5" cy="0.5" r="0.5" gradientTransform="matrix(0, 1, -1, 0, 0.973, 0.068)" gradientUnits="objectBoundingBox"><stop offset="0" stop-color="#4b474b"/><stop offset="1"/></radialGradient><radialGradient id="d" cx="0.5" cy="0.5" r="0.194" gradientTransform="matrix(2.584, 0, 0, 2.584, -2.173, -0.541)" xlink:href="#c"/><linearGradient id="e" x1="0.5" y1="1" x2="0.5" gradientUnits="objectBoundingBox"><stop offset="0" stop-color="#272727"/><stop offset="1" stop-color="#010101"/></linearGradient><linearGradient id="f" x1="0.5" y1="1" x2="0.5" gradientUnits="objectBoundingBox"><stop offset="0" stop-color="#d5cdf8"/><stop offset="1" stop-color="#f3edfb"/></linearGradient><linearGradient id="g" y1="0.5" x2="1" y2="0.5" gradientUnits="objectBoundingBox"><stop offset="0" stop-color="#ccf"/><stop offset="1" stop-color="#755cbb"/></linearGradient><linearGradient id="h" x1="0.5" y1="1" x2="0.5" gradientUnits="objectBoundingBox"><stop offset="0" stop-color="#852c77"/><stop offset="1" stop-color="#b94fa9"/></linearGradient><linearGradient id="j" x1="0.5" y1="1" x2="0.5" gradientUnits="objectBoundingBox"><stop offset="0" stop-color="#852c77"/><stop offset="1" stop-color="#852c77"/></linearGradient><linearGradient id="k" y1="0.5" x2="1" y2="0.5" gradientUnits="objectBoundingBox"><stop offset="0" stop-color="#852c77"/><stop offset="1" stop-color="#8a387d"/></linearGradient><linearGradient id="l" x1="0.5" y1="1" x2="0.5" gradientUnits="objectBoundingBox"><stop offset="0.016" stop-color="#ffc2a9"/><stop offset="1" stop-color="#ff9595"/></linearGradient><linearGradient id="m" x1="0.5" y1="1" x2="0.5" gradientUnits="objectBoundingBox"><stop offset="0" stop-color="#ffeadb"/><stop offset="0.994" stop-color="#c27cb6"/></linearGradient><linearGradient id="o" y1="0.5" x2="1" y2="0.5" gradientUnits="objectBoundingBox"><stop offset="0.016" stop-color="#d1a1d6"/><stop offset="0.994" stop-color="#bd89c4"/></linearGradient><linearGradient id="r" x1="0.5" y1="1" x2="0.5" gradientUnits="objectBoundingBox"><stop offset="0" stop-color="#ffb0b0"/><stop offset="0.984" stop-color="#ffc2a9"/></linearGradient><linearGradient id="u" x1="0.5" y1="1" x2="0.5" gradientUnits="objectBoundingBox"><stop offset="0" stop-color="#852c77"/><stop offset="1" stop-color="#e16ecf"/></linearGradient><linearGradient id="v" y1="0.5" x2="1" y2="0.5" gradientUnits="objectBoundingBox"><stop offset="0" stop-color="#ccedff"/><stop offset="1" stop-color="#755cbb"/></linearGradient><linearGradient id="y" x1="0.5" y1="1" x2="0.5" y2="0" xlink:href="#v"/><linearGradient id="ac" x1="0.5" y1="1" x2="0.5" y2="0" xlink:href="#g"/><linearGradient id="aq" x1="0.47" y1="0.933" x2="0.517" y2="0.115" gradientUnits="objectBoundingBox"><stop offset="0" stop-color="#e1616a"/><stop offset="1" stop-color="#ff8883"/></linearGradient><linearGradient id="as" x1="0.5" y1="1" x2="0.5" gradientUnits="objectBoundingBox"><stop offset="0" stop-color="#cf6074"/><stop offset="1" stop-color="#f37270"/></linearGradient><linearGradient id="at" x1="0.5" y1="1" x2="0.5" gradientUnits="objectBoundingBox"><stop offset="0" stop-color="#cf6074"/><stop offset="1" stop-color="#ff817f"/></linearGradient><linearGradient id="av" x1="0.5" y1="1" x2="0.5" gradientUnits="objectBoundingBox"><stop offset="0" stop-color="#2e33a0"/><stop offset="1" stop-color="#0665a5"/></linearGradient><linearGradient id="aw" x1="0.5" y1="1" x2="0.5" gradientUnits="objectBoundingBox"><stop offset="0" stop-color="#ffeadb"/><stop offset="0.994" stop-color="#8860c7"/></linearGradient><linearGradient id="ax" x1="0.5" y1="1" x2="0.5" gradientUnits="objectBoundingBox"><stop offset="0" stop-color="#ccc2db"/><stop offset="0.994" stop-color="#8860c7"/></linearGradient><linearGradient id="ay" x1="0.5" y1="1" x2="0.5" gradientUnits="objectBoundingBox"><stop offset="0" stop-color="#776d7e"/><stop offset="1" stop-color="#9d68c2"/></linearGradient><linearGradient id="az" x1="0.5" y1="1" x2="0.5" gradientUnits="objectBoundingBox"><stop offset="0" stop-color="#1f77d1"/><stop offset="1" stop-color="#0686c9"/></linearGradient><linearGradient id="ba" x1="0.5" y1="1" x2="0.5" y2="0" xlink:href="#az"/><linearGradient id="bc" x1="0.805" y1="0.799" x2="-0.137" y2="0.078" gradientUnits="objectBoundingBox"><stop offset="0" stop-color="#ffeadb"/><stop offset="0.994" stop-color="#b060f4"/></linearGradient><linearGradient id="bd" x1="0.961" y1="0.812" x2="-0.003" y2="0.231" xlink:href="#bc"/><linearGradient id="be" x1="0" y1="0.5" x2="1" y2="0.5" xlink:href="#az"/><linearGradient id="bf" x1="0" y1="0.5" x2="1" y2="0.5" xlink:href="#az"/><linearGradient id="bg" x1="0" y1="0.5" x2="1" y2="0.5" xlink:href="#az"/><linearGradient id="bh" y1="0.5" x2="1" y2="0.5" gradientUnits="objectBoundingBox"><stop offset="0" stop-color="#9d68c2"/><stop offset="1" stop-color="#aec2ff"/></linearGradient><linearGradient id="bi" x1="0.5" y1="1" x2="0.5" gradientUnits="objectBoundingBox"><stop offset="0" stop-color="#ccedff"/><stop offset="1" stop-color="#9d68c2"/></linearGradient><linearGradient id="bm" x1="0.5" y1="1" x2="0.5" gradientUnits="objectBoundingBox"><stop offset="0" stop-color="#852c77"/><stop offset="1" stop-color="#d255be"/></linearGradient><linearGradient id="bn" x1="0.5" y1="1" x2="0.5" gradientUnits="objectBoundingBox"><stop offset="0" stop-color="#852c77"/><stop offset="0.878" stop-color="#9c3a8d"/><stop offset="1" stop-color="#9f3c90"/></linearGradient><linearGradient id="bp" x1="1.126" y1="0.032" x2="0.959" y2="-0.982" gradientUnits="objectBoundingBox"><stop offset="0" stop-color="#5b1b51"/><stop offset="1" stop-color="#067ed3"/></linearGradient><linearGradient id="bq" x1="0.982" y1="0.095" x2="0.982" y2="-0.879" gradientUnits="objectBoundingBox"><stop offset="0" stop-color="#6b2160"/><stop offset="1" stop-color="#852c77"/></linearGradient></defs><g class="b" transform="translate(0 0)"><circle class="c" cx="249.917" cy="249.917" r="249.917" transform="translate(80.532 315.689) rotate(-45)"/><g transform="translate(274.069 87.759)"><g transform="translate(63.06 413.749)"><path class="d" d="M426.957,454.612H351.181c-7.932-44.045-26.375-101.358-26.375-101.358-4.482-2.66-13.236.613-13.236.613l-27.7,100.745H214.646c-3.676-62.166,30.341-132.731,30.341-132.731l-.016-.016c-.113-.242-1.193-2.4-.9-3.853.113-.629,1.274-1.822,2.579-3,1.87-1.709,4.095-3.418,4.095-3.418l129.152-.806s1.306.661,2.966,1.661h.016c2.821,1.709,6.642,4.353,6.642,6.288a8.81,8.81,0,0,1-1.306,4.772l-.064.081C415.841,375.853,426.957,454.612,426.957,454.612Z" transform="translate(-205.686 -310.79)"/><ellipse class="e" cx="74.66" cy="28.897" rx="74.66" ry="28.897" transform="matrix(0.225, -0.974, 0.974, 0.225, 0, 158.351)"/><ellipse class="f" cx="28.897" cy="74.66" rx="28.897" ry="74.66" transform="matrix(0.963, -0.27, 0.27, 0.963, 131.105, 27.28)"/><g transform="translate(68.428 42.773)"><path class="g" d="M252.222,438.438l-.795-.135c8.812-51.91,31.176-95.447,31.4-95.883l.094-.118,5.7-4.982.53.608-5.639,4.93C282.5,344.824,260.85,387.608,252.222,438.438Z" transform="translate(-251.427 -337.321)"/></g><g transform="translate(118.85 42.776)"><path class="g" d="M319.633,438.437c-8.635-50.867-30.886-94.066-31.887-95.986l-5.043-4.527.538-.6,5.185,4.688c.231.439,23.19,44.378,32,96.291Z" transform="translate(-282.703 -337.323)"/></g><path class="h" d="M379.147,318.738a8.811,8.811,0,0,1-1.306,4.772l-.065.081c-26.891,6.078-47.35,31.18-47.35,31.18,14.655,28.116,39.1,99.842,39.1,99.842H340.809c-7.932-44.045-26.375-101.358-26.375-101.358-4.482-2.66-13.236.613-13.236.613L273.5,454.612H255.573c6.416-42.207,25.36-93.732,25.36-93.732-18.621-21.684-46.318-39-46.318-39l-.016-.016L231.31,319.8l2.386-1.79c11.978,11.495,50.606,26.5,51.8,26.972l-49.22-29.97c1.87-1.709,4.095-3.418,4.095-3.418l129.152-.806s1.306.661,2.966,1.661l-35.274,19.411Z" transform="translate(-195.315 -310.79)"/><path class="i" d="M282.87,340.844l15.076-9.781-3.581,9.781L291.74,370.29Z" transform="translate(-163.751 -298.379)"/><path class="j" d="M293.389,346.632l-15.7-8.883-33.62-15.14L286.877,350.9l2.55,10.14Z" transform="translate(-187.505 -303.555)"/></g><path class="k" d="M323.762,166.846c.1.693.177,1.064.177,1.064a92.329,92.329,0,0,1-2.676,9.125,74.163,74.163,0,0,1-10.044,19.54,38.456,38.456,0,0,1-4.385,5.127c-23.522-7.384-35.113-30.39-39.563-41.836a.577.577,0,0,1-.065-.177c-.854-2.16-1.419-3.9-1.773-5.03v-.016c-.274-.9-.4-1.4-.4-1.4.1-.193.193-.4.29-.6l.048-.081c.387-.806.774-1.628,1.129-2.418a114.737,114.737,0,0,0,6.449-18.008c1.145-4.224,1.757-7.48,2.047-9.206.145-.887.21-1.37.21-1.37l10.963,5.788,37.773,19.991a62.143,62.143,0,0,0-.806,9.576c-.032,2.015.032,3.821.145,5.352.113,1.87.306,3.353.451,4.321v.016A1.1,1.1,0,0,0,323.762,166.846Z" transform="translate(-111.612 -12.883)"/><path class="l" d="M313.172,192.43a32.406,32.406,0,0,1-7.8,5.707,1.2,1.2,0,0,1-.193.113s-.081-.048-.226-.129l-.016-.016c-.822-.5-3.627-2.225-7.4-5.062-9.867-7.432-26.343-22.458-31.051-42.707-.016-.032-.016-.048-.032-.081a50.211,50.211,0,0,1-1.129-7.4v-.016c-.048-.661-.1-1.322-.113-2a103.87,103.87,0,0,0,8.948,15.993c6.674,9.77,16.686,20.426,28.648,20.491,10.35.064,15.654-7.013,18.347-13.542a36.947,36.947,0,0,0,2.176-7.416.05.05,0,0,0,.016-.032c.113-.58.193-1.1.274-1.532v-.016c.032-.226.065-.419.081-.6.1-.725.129-1.145.129-1.145S327.795,177.807,313.172,192.43Z" transform="translate(-111.502 -1.08)"/><path class="m" d="M313.172,192.43a32.406,32.406,0,0,1-7.8,5.707h-.193l-.226-.016-.016-.016c-.822-.5-3.627-2.225-7.4-5.062-9.867-7.432-26.343-22.458-31.051-42.707-.016-.032-.016-.048-.032-.081a50.211,50.211,0,0,1-1.129-7.4v-.016c-.048-.661-.1-1.322-.113-2a103.87,103.87,0,0,0,8.948,15.993s6.513,17.9,20.6,26.762c7.061,4.434,12.414,3.789,16.347,1.177,3.934-2.6,6.481-7.126,7.98-10.544a24.791,24.791,0,0,0,2.064-9q.024-.8,0-1.451a36.947,36.947,0,0,0,2.176-7.416.05.05,0,0,0,.016-.032c.113-.58.193-1.1.274-1.532v-.016c.032-.226.065-.419.081-.6.1-.725.129-1.145.129-1.145S327.795,177.807,313.172,192.43Z" transform="translate(-111.502 -1.08)"/><path class="n" d="M451,339.587a2.862,2.862,0,0,0-.258.129c-1.322.161-5.433-.742-10.818-5.4l-.016-.016q0-.024-.048-.048c-.016-.016-.032-.048-.065-.064-4.514-3.95-9.931-10.544-15.332-21.345-10.8-21.587-13.9-36-14.4-38.515l-.064-.387-6.3,10c-4.272,12.849-12.365,66.019-12.22,68.308s7.174,13.446,7.029,14.816a.05.05,0,0,1-.016.032c-.193,1.387-3.353,4.434-4.256,7.755-.613,2.209,3.676,9.173,6.691,14.381v.016c1.564,2.708,2.773,4.933,2.773,5.772,0,2.434-7.642,14.348-7.642,14.348v6.417l-.113.113-.355.322-.29.242c-2.9,2.289-15.2,9.786-53.637,11.85-45.544,2.434-75.885-12.22-75.885-12.22l2.289-6.271s-2.128-1.822-2.289-2.741c-.145-.919,1.677-3.063,1.677-3.063s-4.579-2.434-4.579-5.5c0-3.047,9.173-12.51,8.867-20.62-.306-8.093-7.335-15.267-8.254-19.846s11.914-15.88,11.914-15.88c-11-34.823-13.139-81.56-13.139-81.56l-2.128-2.451s-13.139,29.938-25.053,44.593c-1.419,1.741-2.918,3.466-4.466,5.127a130.54,130.54,0,0,1-10.253,9.915c-8.254,7.19-15.751,11.914-17.653,11.543-3.063-.613-15.283-24.747-14.719-49.494.258-11.769,7.352-24.94,14.719-35.5.79-1.129,1.58-2.241,2.386-3.321a169.1,169.1,0,0,1,12.639-15.235c.935-1,1.467-1.532,1.467-1.532s-1.677-5.4-2.821-10.092a2.577,2.577,0,0,0-.081-.338.572.572,0,0,0-.032-.161.5.5,0,0,0-.032-.113c-.677-2.886-1.1-5.385-.709-6,1.016-1.628,6.932-3.466,7.948-4.675,1.016-1.225,5.288-21.8,8.545-24.038,3.128-2.144,8.625-3.708,26.956-10.914.9-.355,1.822-.709,2.789-1.1,20.555-8.142,40.724-18.024,40.724-18.024l7.738-9.512h3.45l-1.129,2.418-.048.081c.548,2.451,1.177,4.8,1.886,7.045a.576.576,0,0,0,.064.177c10.64,33.566,38.015,44.383,38.015,44.383,19.024-14.042,18.653-36.339,18.653-36.339v-3.063l3.563,1.064,2.434,5.8s4.127,6.416,20.475,13.607a97.265,97.265,0,0,1,8.98,4.595c14.961,8.5,31.6,21.635,32.872,24.424a9.036,9.036,0,0,1,.435,1.386v.016c1.757,6.9,5.369,32.743,8.722,41.965a21.115,21.115,0,0,0,7.835,10.576c.016.016.016.016.032.016a12.266,12.266,0,0,0,3.128,1.628q.387,2.128.725,4.208C467.329,307.489,454,337.491,451,339.587Z" transform="translate(-158.787 -2.029)"/><path class="m" d="M269.042,241.124l-13.284,4.466-2.128-2.451s-13.139,29.938-25.053,44.593c-1.419,1.741-2.918,3.466-4.466,5.127a130.537,130.537,0,0,1-10.253,9.915l-10.124-43.642L198.59,226a169.114,169.114,0,0,1,12.639-15.235c.935-1,1.467-1.532,1.467-1.532s-1.677-5.4-2.821-10.092a2.578,2.578,0,0,0-.081-.339.573.573,0,0,0-.032-.161.5.5,0,0,0-.032-.113c-.677-2.886-1.1-5.385-.709-6,1.016-1.628,6.932-3.466,7.948-4.675,1.016-1.225,5.288-21.8,8.545-24.038,0,0-2.128,19.749,9.173,44.8l5.5,7.738,16.09,12.93S262.384,237.4,269.042,241.124Z" transform="translate(-152.285 12.988)"/><path class="o" d="M244.629,271.071c-2.854,21.168-34.4,37.467-34.4,37.467-7.029,0-14.88-12.22-22.006-27.294s-7.561-58.377-7.932-61.053c-.387-2.676-4.353-8.029-4.595-10.318-.226-2.289,6.416-7.029,6.416-7.029l-.048-.113-.048-.113c-.693-1.483-4.595-9.85-4.321-11.382.306-1.677,7.771-5.336,7.771-5.336l.468,8.238s17.379-3.289,23.264-16.751l1.032-4.127,2.9,1.935v17.718s.6,2.757,1.515,2.757,7.69-3.386,9.109-2.918c1.435.468,2.837,9.947,4.74,11.156,1.886,1.225,6.932,4.74,7.69,6.416.339.758.371,3.482.4,6.691.048,3.934.081,8.577.661,11.189C238.325,232.927,247.482,249.887,244.629,271.071Z" transform="translate(-166.306 18.767)"/><path class="p" d="M431.667,235.118c-1.419,2.241-8.545,6.932-10.382,8.77-1.838,1.822,0,7.851,0,7.851-29.938,31.776-61.15,47.688-64.294,49.236a2.874,2.874,0,0,0-.258.129c-18.8-12.639-17.186-33.453-10.947-50.993a132.357,132.357,0,0,1,16.638-31.244l.016-.016.016-.016c.339-.129,5.707-2.354,9.544-2.644a5.8,5.8,0,0,1,3.531,1.1c2.289,1.419,4.224,3.66,6.094,2.725,2.757-1.386,8.915-15.944,13.091-16.347,2.918-.274,6.965,2.692,9.657,4.385,1.177.742,2.1,1.241,2.547,1.112,1.532-.4,6.723-6.626,7.142-6.787.4-.177,2.773,1.564,2.773,1.564L415.174,206a56.4,56.4,0,0,0,10.9,24.537l5.594-8.19S433.1,232.877,431.667,235.118Z" transform="translate(-64.78 36.582)"/><path class="q" d="M320.836,165.7c-.032.21-.064.419-.081.629a12.447,12.447,0,0,1-.306,1.29.05.05,0,0,1-.016.032c-1.919,7.11-9.673,14.381-19.459,10.882-10.689-3.821-31.034-46.914-31.034-46.914l2.047-9.206,48.285,39.337.532,3.724Z" transform="translate(-108.606 -12.363)"/><g transform="translate(0 90.94)"><path class="r" d="M219.2,165.066s-2.954-16.291-1.63-28.307-.34-25.658-.34-25.658-2.918-1.222-5.056,0-7.127,13.644-4.888,23.622.509,33.907.509,33.907h-3.36L197.1,158.549l-3.564-1.017s-20.517,19.346-20.212,30.852l2.681,10.232,25.269-.866,16.5-18.837Z" transform="translate(-167.752 -110.558)"/><path class="s" d="M195.655,139.7a131.22,131.22,0,0,0,3.41,23.826s-.482,4.5-5.752,4.811l-1.3-1.451s-.916,5.117-5.575,5.5l-4.429-4.429,1.145,3.666a6.27,6.27,0,0,1-5.8,3.742s-7.024-5.5-7.484-12.677l6.947-5.881v-4.5l8.251-5.805.152-3.282S190.054,139.618,195.655,139.7Z" transform="translate(-169.868 -92.722)"/><path class="t" d="M210.961,124.672s-1.237,3.142-2.992,4.364-6.845,2.157-6.845,2.157l-.232,28.8h-3.36L190.2,149.909s3.716,5.754,3.945,10.081l-2.9,1.425-2.52-8.63L187.529,159l1.188,7.727s4.346-3.74,12.212-3.893l1.183,2.149s-14.229,11.785-17.513,18.735c0,0,7.026-8.935,23.062-18.787l1.528-4.735,2.027-11.3S209.3,132.6,210.961,124.672Z" transform="translate(-160.849 -101.918)"/><path class="s" d="M228.831,171.747c-1.322,3.966-15.171,20.459-16.7,24.038a48.41,48.41,0,0,0-2.451,8.238c-6.8,14.719-23.264,16.751-23.264,16.751l-.758-13.284s-8.851-5.094-10.35-7.884l-.016-.048-.177-.468c-.451-2.6-.064-12.22-.064-12.22l15.493-6.271c6.723-8.706,23.07-18.782,23.07-18.782l.758-4.562c-11.737-5.772-9.77-23.231-7.787-25.376,1.983-2.128,5.643-2.128,5.643-2.128s4.288,14.042,7.029,20.62C222.011,156.931,230.153,167.781,228.831,171.747Z" transform="translate(-166.791 -98.809)"/><path class="u" d="M179.447,141.874s1.731,16.036,6.8,23.673a37.35,37.35,0,0,1-6.949-20.391Z" transform="translate(-164.097 -91.387)"/><path class="u" d="M174.177,147.511s1.683,12.905,9.625,20.083c0,0-7.032-3.513-9.625-15.579Z" transform="translate(-167.23 -87.936)"/><path class="v" d="M210.189,168.589s-17.468,16.958-28.619,15.124L182.328,197a29.474,29.474,0,0,0,24.287-20.884S208.759,170.57,210.189,168.589Z" transform="translate(-162.704 -75.033)"/></g><g transform="translate(322.056 146.626)"><path class="s" d="M464.312,206.025s-16.041,29.326-34.823,38.338h-6.417L408.256,266.82s-9.576-6.013-10.286-25.763c0,0,3.353-3.5,4.176-7.448,0,0-5.288-4.159-6.723-7.206-1.419-3.063-1.935-12.22-2.95-15.993S382.8,198.8,380.866,197.787s-10.689-1.532-10.689-1.532-1.225-3.16,0-4.675c1.225-1.532,14.864-6.836,22.3-1.741a33.482,33.482,0,0,0,1.322,5.917c.822,2.031,7.335,9.254,8.351,9.254s5.4-3.66,7.335-6.513c1.854-2.741,11.7-23.973,14.09-31.147a.8.8,0,0,1,.064-.21c.032-.113.081-.226.1-.322a1.505,1.505,0,0,0,.064-.21c.016-.032.032-.048.032-.081,1.838-6.207,12.527-18.121,18.234-21.377,0,0,2.434-.613,3.756,2.434,0,0-4.579,13.043-9.367,20.781-.806,1.306-1.677,2.837-2.579,4.482h-.016c-4.079,7.5-8.673,17.315-9.335,18.75l-.081.177,2.547,1.306,6.884-6.529,7.061-6.691,16.2,17.105-1.6,2.031-5.062,6.5,2.563.468,5.965-6.594Z" transform="translate(-369.632 -145.099)"/><path class="t" d="M448.212,203.81l-5.125,7.532s-28.137-21.7-34.247-23.536-8.351-.613-8.351-.613l-6.3,8.045s11.608,10.286,12.623,24.134c0,0-3.869-17.508-17.009-22.812,1.016,0,5.4-3.66,7.335-6.513,1.854-2.741,11.7-23.973,14.09-31.147a8,8,0,0,0,.258,5.5c1.386,2.563,9.544.145,10.028,0h.016l-9.351,18.75-.081.177,2.547,1.306,6.884-6.529-3.45,8.012,25.118,4.434-5.062,6.5,2.563.468Z" transform="translate(-357.286 -136.65)"/><path class="w" d="M418.426,166.672s4.888-.713,8.045,5.6l-.714,2.036s4.764.933,9.368,8.654a26.1,26.1,0,0,1-14.153,10.793s-4.683-1.324-5.5-5.294l.916-2.546-3.666,2.749s-4.379,1.324-6.313-5.193Z" transform="translate(-347.118 -131.907)"/><path class="w" d="M434.456,184.57s1.017-4.685-3.972-7.738l-9.673,10.69s.293,3.428,4.48,4.176C425.29,191.7,431.91,189.457,434.456,184.57Z" transform="translate(-338.302 -125.672)"/><path class="v" d="M385.63,195.53s11.206,12.506,27.649,17.96l-7.086,10.74L391.4,205.453l.948-2.717S386.441,198.29,385.63,195.53Z" transform="translate(-359.839 -114.226)"/><path class="u" d="M422.314,171.4s-4.683,7.738-9.367,11.608l-.916,2.546s9.091-6.136,12.436-13.225A5.821,5.821,0,0,0,422.314,171.4Z" transform="translate(-343.676 -128.998)"/></g><path class="x" d="M441.364,249.353c-1.419,2.241-8.545,6.932-10.382,8.77-1.838,1.822,0,7.851,0,7.851-29.938,31.776-61.15,47.688-64.294,49.236a2.868,2.868,0,0,0-.258.129c-2.451.306-14.365-3.047-26.278-26.875-10.8-21.587-13.9-36-14.4-38.515l-.064-.387L328.318,246l3.9-43.98,2.741,8.851c10.382-12.527,20.168-31.76,20.168-31.76l.435,1.386v.016c1.757,6.9,5.369,32.743,8.722,41.965a21.114,21.114,0,0,0,7.835,10.576l.016.032-.016.016c-9.56,8.722-14.3,21.265-16.638,31.244a86.54,86.54,0,0,0-2.289,16.17,108.718,108.718,0,0,1,11-27.343,58.848,58.848,0,0,1,11.817-14.268,94.887,94.887,0,0,1,9.222-7.384c2.289,1.419,4.224,3.66,6.094,2.725-12.575,18.879-12.269,56.249-.451,49.123,11.8-7.126,14.5-22.25,14.5-22.25-2.789-18.427-1.957-39.211.284-43.161,2.72.09,10.508,5.567,10.96,5.438-.709,21.684,9.48,36.161,9.48,36.161l6.723-10.4a64.506,64.506,0,0,1-9.06-32.55c.4-.177,2.773,1.564,2.773,1.564l-1.661,2.064a56.405,56.405,0,0,0,10.9,24.537l5.594-8.19S442.8,247.112,441.364,249.353Z" transform="translate(-74.477 22.348)"/><path class="y" d="M403.571,387.832v6.416l-.113.113-.355.322-.29.242c-2.9,2.289-15.2,9.786-53.637,11.849-45.544,2.434-75.885-12.22-75.885-12.22l2.289-6.271s-2.128-1.822-2.289-2.741c-.145-.919,1.677-3.063,1.677-3.063s-4.579-2.434-4.579-5.5c0-2.757,7.481-10.737,8.69-18.234a10.893,10.893,0,0,0,.177-2.386c-.306-8.061-7.271-15.2-8.238-19.781a.254.254,0,0,1-.016-.064c-.919-4.579,11.914-15.88,11.914-15.88-11-34.823-13.139-81.56-13.139-81.56l-2.128-2.451s-13.139,29.938-25.053,44.593c-11.914,14.671-29.326,27.2-32.373,26.585-7.029,0-14.88-12.22-22.006-27.294s-7.561-58.377-7.932-61.053c-.387-2.676-4.353-8.029-4.595-10.318,7.642,13.139,19.814,9.27,19.814,9.27-8.819.193-13.4-16.3-13.4-16.3l-.048-.113-.048-.113-4.3-11.366c.484.548,10.56,11.817,20.3,4.869,9.979-7.126,15.122-20.926,15.122-20.926v17.718s.6,2.757,1.515,2.757a216.282,216.282,0,0,1-4.417,27.875c-4.53,21.168-10.737,41.61-10.737,41.61s16.831-9.157,22.748-32.373a97.917,97.917,0,0,0,3.015-27.794,69.672,69.672,0,0,0-1.354-11.624,2.577,2.577,0,0,0-.081-.339.572.572,0,0,0-.032-.161.7.7,0,0,0-.016-.081l1.628,3.45,3.1,7.674c3.6,29.793-3.821,74.692-3.821,74.692,10.8-13.445,13.042-43.174,12.575-50.4-.21-3.45-.484-7.706-.661-11.189-.242-3.8-.4-6.691-.4-6.691l22.1,13.188-4.079-12.93,16.09,12.93s14.461,17.412,29.326,19.443c14.864,2.047,69.436.822,69.436.822s-47.446,3.047-61.3,7.126-16.493,8.754-16.493,8.754c10.012,50.929,65.422,68.1,67.147,68.614-50.268-7.545-73.66-50.284-73.66-50.284s-.822,24.038,3.047,33.195,26.682,31.566,56.007,36.242a67.539,67.539,0,0,0,7.3.742c24.731,1.161,45.206-11.479,47.3-12.833a1.5,1.5,0,0,1,.177-.113.858.858,0,0,1-.048.081c-.79,1.209-10.931,15.461-51.88,17.025-2.483.1-4.9.081-7.255-.016h-.032c-37.951-1.6-57.281-26.875-57.281-26.875s-14.042,7.545-5.078,18.734c.1.113.194.242.29.355,2.644,3.047,8.464,6.771,15.348,10.608.193.113.387.226.564.322,8.319,4.595,18.072,9.335,25.618,13.252a.788.788,0,0,1,.113.048,95.5,95.5,0,0,1,10.512,6.013.016.016,0,0,1,.016.016c2.128,1.548,2.563,2.547.484,2.789-10.592,1.225-50.7-7.529-52.331-5.095-1.628,2.451,1.983,8.754,1.983,8.754,36.822,18.25,115.609,9.254,118.092,8.98-65.938,16.88-119.882-4.5-119.882-4.5l1.79,6.32a235.905,235.905,0,0,0,63.987,11c34.63.806,56.217-8.045,56.217-8.045Z" transform="translate(-166.304 19.501)"/><path class="z" d="M300.305,216.874s26.227,1.425,43.558,6.007l-8.938,13.557A118.917,118.917,0,0,0,300.305,216.874Z" transform="translate(-90.017 45.466)"/><path class="z" d="M339.813,261.713s-16.36,13.649-32.448,19.962A108.582,108.582,0,0,1,275.8,288.6s9.249,2.75,32.007-.916,30.544-15.991,30.544-15.991Z" transform="translate(-105.019 72.916)"/><path class="z" d="M346.029,302.725v.016c-30.277,7.819-68.711-3.4-68.389-4.772s10.528.613,34.194-4.127c22.941-4.595,31.26-12.752,31.76-13.252-.193,1.387-3.353,4.433-4.256,7.755C338.726,290.553,343.015,297.518,346.029,302.725Z" transform="translate(-103.893 84.472)"/><path class="aa" d="M303.234,233.6c-25.859,2.628-32.824,9.834-32.824,9.834-7.271.919-23.6-17.7-23.6-17.7l-2.128-2.451s-13.139,29.938-25.053,44.593c-1.419,1.741-2.918,3.466-4.466,5.127l1.693-3.8s2.773-1.322,3.579-15.88c.822-14.542-6.11-36.242-6.159-39.192s-1.064-17.879-1.064-17.879l22.1,13.188-4.079-12.93,16.09,12.93s6.3,9.48,22.216,17.379C284.549,234.281,301.38,233.685,303.234,233.6Z" transform="translate(-143.335 32.841)"/><path class="aa" d="M232.73,213.784l15.406-2.012s6.16,4.08,18.519,9.11l-10.307,15.2s4.088,21.666,15.825,33.875c0,0-31.149-17.3-35.528-31.849Z" transform="translate(-131.385 42.343)"/><path class="aa" d="M176.94,190.517l4.4,11.592s4.49,15.645,13.4,16.3,17.621-26.23,17.621-26.23V174.46s-9.476,20.318-19.71,22.609S176.94,190.517,176.94,190.517Z" transform="translate(-165.539 19.501)"/><path class="z" d="M209.99,187.858s7.942,15.878,17.716,20.765c0,0-11.624-28.207-9.172-44.8C218.535,163.82,214.262,166.48,209.99,187.858Z" transform="translate(-145.306 12.988)"/><path class="ab" d="M332.195,193.32l2.741,8.851,2.781,72.629A175.194,175.194,0,0,1,325.73,241.25l2.568-3.95S332.608,209.924,332.195,193.32Z" transform="translate(-74.453 31.047)"/><path class="ac" d="M382.429,206.58s-1.551,35.677,13.612,38.763l.753,3.814S377.178,248.431,382.429,206.58Z" transform="translate(-40.289 39.164)"/><path class="ad" d="M378.746,214.345s-.58,1.278-6.094-2.725c0,0-19.074,13.508-26.42,32.55,0,0,11.756-17.494,18.011-19.386s7.766,5.09,7.766,5.09S374.484,220.037,378.746,214.345Z" transform="translate(-61.902 42.25)"/><path class="aa" d="M175.7,195.97s7.339,13.526,21.084,9.281c0,0-8.237,5.554-16.489,1.037C180.3,206.288,175.176,197.5,175.7,195.97Z" transform="translate(-166.318 32.669)"/><path class="ac" d="M211.663,185.35s10.089,37.723-16.231,66.062c0,0,17.1-8.775,20.97-29.089A62.457,62.457,0,0,0,211.663,185.35Z" transform="translate(-154.218 26.168)"/><path class="aa" d="M330.417,166.648s-1.137,17.029-9.3,29.247-24.352,20.467-24.352,20.467,20.313-7.484,29.63-18.023S330.417,166.648,330.417,166.648Z" transform="translate(-92.183 14.719)"/><path class="aa" d="M254.529,150.756a107.65,107.65,0,0,0,4.583,28.75c4.582,14.511,44.353,39.864,44.353,39.864s-40.993-17.029-48.936-32.34S254.529,150.756,254.529,150.756Z" transform="translate(-120.201 4.99)"/><path class="ae" d="M262.9,192.824v32.338s31.354-.6,91.21,4.928l1.365-29.1S325.466,192.381,262.9,192.824Z" transform="translate(-118.024 27.457)"/><path class="m" d="M333.609,160.861c-1.257,14.993-5.82,25.44-10.689,32.485-6.707,9.673-13.961,12.978-13.961,12.978A83.766,83.766,0,0,1,290,194.894c-22.99-18.379-30.406-43.851-30.97-45.947,9.705,23.441,23.957,37.644,34.759,45.641a69.767,69.767,0,0,0,15.171,8.9v-7.5a49.821,49.821,0,0,1-5-2.193c-19.024-9.592-29.019-29.583-33.695-42.513-.016-.032-.016-.048-.032-.081a91.84,91.84,0,0,1-3.515-11.914h3.45l-1.129,2.418-.048.081c.548,2.451,1.177,4.8,1.886,7.045a.577.577,0,0,0,.065.177c10.64,33.566,38.015,44.383,38.015,44.383,19.024-14.042,18.653-36.339,18.653-36.339v-3.063l3.563,1.064Z" transform="translate(-115.285 -2.029)"/><path class="ad" d="M376.2,203.207s-5.172,16.891-.284,43.161c0,0,2.444-33.3,4.276-36.2s6.968-1.525,6.968-1.525S379.079,204.187,376.2,203.207Z" transform="translate(-45.018 37.099)"/><path class="ac" d="M355.459,309.809c-4.514-3.95-9.931-10.544-15.332-21.345-10.8-21.587-13.9-36-14.4-38.515l2.563-3.95,3.434-33.211,3.208-1.918A135.873,135.873,0,0,0,355.1,179.11a9.035,9.035,0,0,1,.435,1.386v.016c1.757,6.9,5.369,32.743,8.722,41.965a21.114,21.114,0,0,0,7.835,10.576S352.25,262.492,351.283,283.5C350.429,302.619,354.685,308.842,355.459,309.809Z" transform="translate(-74.453 22.348)"/><path class="ac" d="M293.278,312.487S257.5,306.619,242.9,297.2a.016.016,0,0,1-.016-.016,10.9,10.9,0,0,0,.177-2.386c-.306-8.061-7.271-15.2-8.238-19.781.161.435,1.209,2.854,6.287,7.206a107.916,107.916,0,0,0,15.348,10.608c.193.113.387.226.564.322,10.318,6.094,19.2,10.221,25.618,13.252a.8.8,0,0,1,.113.048c5.772,2.708,9.512,4.5,10.511,6.013A.016.016,0,0,1,293.278,312.487Z" transform="translate(-130.106 81.062)"/><path class="ac" d="M343.594,280.59c-.193,1.387-3.353,4.433-4.256,7.755,0,0-13.123,13.9-61.7,9.625.322-1.37,10.528.613,34.194-4.127C334.776,289.247,343.094,281.09,343.594,280.59Z" transform="translate(-103.892 84.472)"/><path class="af" d="M379.6,189.916l-31.051,10.06-9.093,4.224-.048.016-5.917.016-8,.016-5,.4-2.644.193-7.529.6-3.789.306L269.3,192.27l-6.658-2.4L232.01,178.776c.9-.355,1.822-.709,2.789-1.1,20.555-8.141,40.724-18.024,40.724-18.024l7.738-9.512h3.45a114.722,114.722,0,0,0,6.449-18.008l2.047-9.206c.145-.887.21-1.37.21-1.37l10.963,5.788,36.967,29.567c-.032,2.015.032,3.821.145,5.352l.532,3.724c.1-.725.129-1.145.129-1.145l3.563,1.064,2.434,5.8s4.127,6.416,20.475,13.607A97.261,97.261,0,0,1,379.6,189.916Z" transform="translate(-131.826 -12.883)"/><g transform="translate(148.838)"><path class="s" d="M331.957,193.4a50.573,50.573,0,0,1-30.454-4.482c-15.977-7.738-29.406-30.551-30.228-36.242-.806-5.707,6.11-20.571,6.11-32.179s-5.691-31.566,3.869-42.368c9.576-10.785,53.557-12.414,67.824,1.435,0,0,4.417,11.092,4.417,17.363a45.681,45.681,0,0,1-.677,6.3c-.129.951-.306,1.967-.467,3.015-1.274,7.593-3.031,16.863-2.209,20.926a20.38,20.38,0,0,0,1.273,3.966v.016c1.757,4.063,4.369,7.3,4.837,10.818C356.865,146.562,350.707,179.145,331.957,193.4Z" transform="translate(-256.667 -44.689)"/><path class="s" d="M282.789,102.958S278.838,93.047,268.91,92.9c0,0-5.8,2.291-6.721,6.72,0,0,2.139,16.038,4.583,23.522s11.4,6.4,11.4,6.4S285.977,117.6,282.789,102.958Z" transform="translate(-262.189 -30.431)"/><path class="ag" d="M298.634,119.875s3.3-.256,4.73.813,6.62,6.109,13.186,7.484,10.972-4.217,12.372-4.5,2.937,1.691,2.937,1.691-.6-2.284-4.024-3.324c0,0-1.385,5.267-10.9,3.465s-13.568-6.033-13.568-6.033l-.484-.866A25.368,25.368,0,0,0,298.634,119.875Z" transform="translate(-239.878 -14.695)"/><path class="t" d="M298.784,99.863l.129-1.019s9.5-16.662,28.282-17.121,23.03,11.314,23.03,11.314l3.477-5.282-7.927-16.112-55.195-.917L277.14,81.571l-1.7,26.546,5.975,35.046,14.54,7.748,4.1-3.64c-1.515-11.735-10.244-22.456-10.244-22.456l6.363-4.419s16.343,7.911,25.787,5.544c0,0,7.1-20.729,6.7-36.089C328.662,89.851,304.454,93.434,298.784,99.863Z" transform="translate(-254.076 -44.003)"/><path class="ah" d="M289.4,94.63s.914-6,11.048-8.4c11.284-2.675,20.452-4.936,20.452-4.936s-2,6.583-5.759,9.051c0,0-11.941-.435-17.984.94S289.4,94.63,289.4,94.63Z" transform="translate(-245.532 -37.536)"/><path class="ah" d="M325.483,84.565s-5.73,4.417-9.625,14.956c0,0,3.742-4.888,7.177-4.811a1.962,1.962,0,0,1,1.978,2.378S327.356,90.79,325.483,84.565Z" transform="translate(-229.334 -35.531)"/><path class="ai" d="M291.747,106.127s.611-12.677,12.983-15.885c0,0,4.429,5.728,4.888,12.219C309.618,102.461,303.05,101.239,291.747,106.127Z" transform="translate(-244.094 -32.055)"/><path class="aj" d="M313.726,108.47s1-10.092,6.8-13.823c0,0,3.95,2.962,3.54,11.408C324.063,106.055,320.6,104.8,313.726,108.47Z" transform="translate(-230.639 -29.359)"/><path class="ak" d="M291.747,101.55s4.022,4.938,15.274,5.905c0,0,2.144-3.263,1.938-9.65C308.959,97.8,298.62,96.815,291.747,101.55Z" transform="translate(-244.094 -27.478)"/><path class="ak" d="M313.726,104.21v1.477s1.731,3.614,7.943,4.226a17.312,17.312,0,0,0,2.17-8.177S319.886,100.749,313.726,104.21Z" transform="translate(-230.639 -25.099)"/><path class="al" d="M300.2,97.665a13.937,13.937,0,0,0-2.6,8.943,42.5,42.5,0,0,0,5.842.969s2.462-3.427,1.938-9.651A15.58,15.58,0,0,0,300.2,97.665Z" transform="translate(-240.519 -27.6)"/><path class="al" d="M318.114,101.943s-1.619,1.73-1.925,7.037a12.181,12.181,0,0,0,3.972.967,14.736,14.736,0,0,0,2.17-8.177A7.117,7.117,0,0,0,318.114,101.943Z" transform="translate(-229.131 -25.134)"/><path class="ah" d="M298.68,106.988s-1.022-6.85,2.9-9.468l3.21.406s1.066,5.425-1.938,9.65C302.85,107.577,299.661,107.214,298.68,106.988Z" transform="translate(-239.924 -27.6)"/><path class="ah" d="M319.07,101.648a29.416,29.416,0,0,0-2.128,7.787,8.894,8.894,0,0,0,2.758.521s2.2-2.687,2.17-8.177A6.594,6.594,0,0,0,319.07,101.648Z" transform="translate(-228.67 -25.142)"/><path class="am" d="M291.747,101.72s7.484-4.353,20.238-1.872l-2.367-1.794A21.326,21.326,0,0,0,291.747,101.72Z" transform="translate(-244.094 -27.648)"/><path class="am" d="M313.726,104.618a20.206,20.206,0,0,1,13-1.5l-2.883-2.136S319.148,100.265,313.726,104.618Z" transform="translate(-230.639 -25.507)"/><path class="ae" d="M296.768,100.113a4.426,4.426,0,0,1,3.869,1.4A3.527,3.527,0,0,1,296.768,100.113Z" transform="translate(-241.02 -26.042)"/><path class="ae" d="M315.432,103.808s3.191-.621,4.293.835C319.725,104.643,318.018,105.817,315.432,103.808Z" transform="translate(-229.595 -23.831)"/><path class="an" d="M292.214,100.554a29.334,29.334,0,0,0,15.132,7.126l.24-3.394-.851,1.433S297.778,105.189,292.214,100.554Z" transform="translate(-243.808 -25.742)"/><path class="an" d="M313.726,104.137s1.035,3.716,8.612,5.4l-.243-1.819-.426.648S316.284,107.676,313.726,104.137Z" transform="translate(-230.639 -23.549)"/><path class="ao" d="M304.3,113.461a26.989,26.989,0,0,1,8.019,0c5.193.611,11.031,2.036,14.221,0,0,0-4.238,4.243-7.909,4.888s-9.265-2.581-9.265-2.581l-2.444.044A6.66,6.66,0,0,1,304.3,113.461Z" transform="translate(-236.41 -18.007)"/><path class="ap" d="M306.148,115.057a3.884,3.884,0,0,1,2.341-.613c1.069.2,2.157,1.76,2.157,1.76A10.641,10.641,0,0,0,306.148,115.057Z" transform="translate(-235.278 -17.259)"/><path class="aq" d="M324,118.793c1.358-1.324-5.668-13.837-9.028-14.3s-6.516,14.031-6.516,14.031,4.672.655,9.206,1.261S324,118.793,324,118.793Z" transform="translate(-233.867 -23.339)"/><path class="t" d="M325.83,88.922c-1.9-.242-8.625,7.932-8.625,7.932s-4.272,13.236-3.434,17.154c.838,3.934,11.221,6.013,11.221,6.013l.435-.693v-.016a20.378,20.378,0,0,1-1.273-3.966c-.822-4.063.935-13.333,2.209-20.926a15.583,15.583,0,0,0,.467-3.015C326.878,90.18,326.7,89.019,325.83,88.922Z" transform="translate(-230.678 -32.867)"/><path class="ar" d="M352.288,163.955c-2.144-4.482-.822-6.82-19.443-9.254-26.359-3.466-28.616,4.579-33.1,3.353a4.3,4.3,0,0,1-.532-.193c-4.853-1.886-16.283-13.123-16.573-28.261-.306-15.735,10.237-26.891,10.237-26.891-3.821-3.208-5.352-12.51-1.225-16.493,4.127-3.966,11.156-3.047,28.407-1.225,17.266,1.838,17.266.774,17.266.774,5.481,1.4,8.625,6.545,9.512,8.19.177.322.258.516.258.516l2.144-1.983a28.077,28.077,0,0,1,4.74,17.557s9.464-19.249,8.383-21.974c-1.967-5.03-7.432-12.365-7.771-12.833l-.016-.016s-1.532-14.655-6.11-14.655-24.134,4.417-24.134,4.417A27.769,27.769,0,0,0,326.17,54.15l-.081.081c-6.384,5.723-12.623,6.352-21.458,10.447a22.36,22.36,0,0,0-8.271,6l-.6.709-.629.758c-.613.774-1.241,1.564-2,2.37a.527.527,0,0,1-.1.1l-.048.048a25.283,25.283,0,0,1-2.563,2.4c-5.8,4.724-18.572,7.884-20.1,12.881-1.531,4.982,1.935,11.8,3.772,18.83a38.262,38.262,0,0,1,.983,13.236,26,26,0,0,1,4.063,19.3c-1.789,10.27-5.707,11.946-5.707,11.946a17.586,17.586,0,0,0-1.451,10.947C277.628,186.639,300.972,200,300.972,200c20.765,7.738,34.42,4.369,34.42,4.369l.016-.016c15.106-9.85,20.281-42.449,20.507-43.964C355.657,160.8,352.852,165.148,352.288,163.955Zm-9.318,20.781c-3.66-.613-4.434-9.883-5.643-11.108-1.225-1.209-7.851-.709-7.851-.709s-6.11,6.932-8.544,7.126c-2.451.21-15.477-5.094-12.656-13.026,2.805-7.948,12.656-8.964,12.656-8.964a23.865,23.865,0,0,0,12.72,4.772c7.642.5,10.4-.9,11.3-1.306.919-.419,5.836,1.822,5.707,8.754C350.579,175.1,346.645,185.349,342.969,184.736Z" transform="translate(-257.442 -54.15)"/><path class="as" d="M315.546,106.214s6.583,8.172,5.955,11.247c-.688,3.363-8.312,5.159-8.312,5.159s6.113-2.109,7.366-5.159A40.559,40.559,0,0,0,315.546,106.214Z" transform="translate(-230.968 -22.278)"/><path class="at" d="M323.87,102.043a28.077,28.077,0,0,0-4.74-17.557,46.9,46.9,0,0,0,5.336-17.266l.016.016c1.58,3.885,2.483,11.446,2.483,11.446l5.288,1.386C333.333,82.794,323.87,102.043,323.87,102.043Z" transform="translate(-227.331 -46.149)"/><path class="au" d="M346.839,93.955c-.887-1.644-4.03-6.787-9.512-8.19,0,0,0,1.064-17.266-.774-17.25-1.822-24.279-2.741-28.407,1.225-4.127,3.982-2.6,13.284,1.225,16.493,0,0-10.544,11.156-10.237,26.891.29,15.138,11.72,26.375,16.573,28.261l-.226,1.677s.854,34.662,9.286,37.419c8.416,2.741,25.892,1.322,27.52,2.95,1.548,1.548-.226,4.208-.387,4.45l-.016.016s-13.655,3.369-34.42-4.369c0,0-23.344-13.365-28.987-35.806a17.586,17.586,0,0,1,1.451-10.947s3.918-1.677,5.707-11.946a26,26,0,0,0-4.063-19.3,38.262,38.262,0,0,0-.983-13.236c-1.838-7.029-5.3-13.849-3.772-18.83a21.985,21.985,0,0,0,16.186-3.563s1.709-2.37,9.27-3.6,37.951,1.838,37.951,1.838-3.047-2.531-9.463-4.208c-6.062-1.6-26.762.258-28.987.435,2.37-.419,25.843-4.45,28.519-3.644,2.837.838,12.994,5.5,12.994,5.5-.919-4.659-10.012-15.88-10.012-15.88s-12.833.226-21.232,1.983a27.466,27.466,0,0,0-12.414,5.707l2-2.37.629-.758.6-.709,2.934-.5,14.735-5.949c4.949-2.644,11.285-9.189,12.059-10l.081-.081a27.769,27.769,0,0,1-1.838,10.834c12.446-1.532,16.654-.758,16.654-.758C346.645,72.239,346.839,93.955,346.839,93.955Z" transform="translate(-257.442 -54.15)"/><path class="av" d="M289.19,145.16a77.6,77.6,0,0,1,19.145-1.346c11.514.464,18.131.511,15.275,5.715C323.61,149.529,309.147,152.8,289.19,145.16Z" transform="translate(-245.66 0.694)"/><path class="aw" d="M320.334,61.942s7-2.731,9.763-2.281a5.4,5.4,0,0,0-2.241-1.765c-1.145-.306-24.176,4.8-24.176,4.8S318.041,61.026,320.334,61.942Z" transform="translate(-236.789 -51.865)"/><path class="ax" d="M320.341,62.094s-.55,7.622-2.983,10.382l-28.519,3.644-8.372-1.477a21.012,21.012,0,0,0,6.8-5.536C290.827,64.952,309.42,60.872,320.341,62.094Z" transform="translate(-251 -49.422)"/><path class="ax" d="M322.44,67.22s2.322,7.5,2.5,11.463l5.288,1.386S328.623,74.4,322.44,67.22Z" transform="translate(-225.305 -46.149)"/><path class="ay" d="M280.858,114.261s-2.006-9.621-6.921-14.382a11.555,11.555,0,0,0-10.516-3.232s1.527,17.844,3.131,22.2,4.048,5.5,4.048,5.5a13.737,13.737,0,0,1-3.9-8.914c-.458-5.9-.611-14.227.687-15.219s6.545,2.879,6.545,2.879-1.657,2.03-2.65,7.289,2.673,9.077,4.047,9-.076-6.084.153-7.816S278.771,110.215,280.858,114.261Z" transform="translate(-261.435 -28.277)"/><path class="az" d="M273.028,100.065a12.019,12.019,0,0,0-4.787,10.76c.579,7.234,4.712,6.918,4.727,5.4s-.788-5.427-.368-7.638,3.987-1.211,3.987-1.211S274.239,101.634,273.028,100.065Z" transform="translate(-258.511 -26.042)"/><path class="ba" d="M331.063,120.05s-6.67,30.427-20.523,43.98C310.54,164.03,326.339,157.822,331.063,120.05Z" transform="translate(-232.59 -13.807)"/><path class="bb" d="M318.676,57.89s3.519,2.734,4.188,12.243S319.408,90.2,319.408,90.2s5.288-7.9,5.8-16.552S321.463,58.983,318.676,57.89Z" transform="translate(-227.609 -51.86)"/></g><path class="bc" d="M292.243,70.417a82.358,82.358,0,0,0,17.071,3.565c8.93.787,10.766.966,10.766.966s-3.589-3.482-11.234-4.53A77.485,77.485,0,0,0,292.243,70.417Z" transform="translate(-94.953 -44.477)"/><path class="bd" d="M316.674,121.8s3.893,0,5.428,4.888a40.656,40.656,0,0,1,1.559,7.255l1.378-5.357s-1.8-6.786-3.669-8.312c-1.348-1.1-3.668-2.217-4.774-1.948Z" transform="translate(-80.044 -14.889)"/><path class="be" d="M310.132,117.436l.658,5.8s4.746.38,7.887-.917l.561-3.513S313.185,117.283,310.132,117.436Z" transform="translate(-84.001 -15.414)"/><path class="ba" d="M323.56,163.96s27.77,20.284,31.376,27.262,5.064,28.863,9.939,38.331c0,0-3.331-15.49-5.67-27.636s-1.777-12.319-3.074-15.3S334.087,169.25,323.56,163.96Z" transform="translate(-75.781 13.073)"/><path class="ba" d="M325.334,234s-13.387,57.3-12.78,61.173,9.275,11.769,9.678,13.934c0,0-6.623,8.872-6.316,10.832s11.6,14.389,11.3,18.229c-.089,1.116-7.419,13.21-7.419,13.21s8.285-11.888,8.693-13.784-10.15-17.776-10.461-19.39c-.8-4.177,5.267-7.248,5.472-10s-8.214-9.467-8.282-13.949S325.334,234,325.334,234Z" transform="translate(-82.531 55.952)"/><path class="bf" d="M322.16,318.73s28.939,65.511,38.808,131.022C360.968,449.752,359.321,385.819,322.16,318.73Z" transform="translate(-76.638 107.82)"/><path class="aq" d="M213.029,164.958s-7.489-1.6-10.594-8.132-1.079-15.986-1.079-15.986,5.862,11.245,8.782,15.085S213.843,164.144,213.029,164.958Z" transform="translate(-150.989 -1.08)"/><g transform="translate(176.432 227.267) rotate(3)"><g transform="translate(4.708 15.753)"><path class="bg" d="M1.022,3.04a1.189,1.189,0,0,1-.476-.083.875.875,0,0,1-.317-.223.879.879,0,0,1-.178-.312A1.269,1.269,0,0,1,0,2.061a1.69,1.69,0,0,1,.046-.385,1.87,1.87,0,0,1,.113-.323l.1.057.1.051.094.048.1.054A1.193,1.193,0,0,0,.484,1.8a1.5,1.5,0,0,0-.027.272.915.915,0,0,0,.022.2.353.353,0,0,0,.081.161.456.456,0,0,0,.167.113.8.8,0,0,0,.28.043l.016,0h.444a1.381,1.381,0,0,1-.116-.312,1.147,1.147,0,0,1-.04-.293,1.219,1.219,0,0,1,.065-.4,1,1,0,0,1,.188-.344A.928.928,0,0,1,1.87,1,.977.977,0,0,1,2.3.9h.691A.255.255,0,0,1,3.1.931.312.312,0,0,1,3.2,1a.352.352,0,0,1,.065.1.3.3,0,0,1,.024.121V2.58h.4v.46Zm.794-.8a.485.485,0,0,0,.067.135.354.354,0,0,0,.1.108.45.45,0,0,0,.137.075A.579.579,0,0,0,2.3,2.58h.541V1.364H2.3a.47.47,0,0,0-.4.194.537.537,0,0,0-.1.2.768.768,0,0,0-.032.221.776.776,0,0,0,.011.135A.444.444,0,0,0,1.816,2.239ZM2.236.253a.243.243,0,0,1,.073-.18A.242.242,0,0,1,2.486,0a.252.252,0,0,1,.1.019.225.225,0,0,1,.078.054A.243.243,0,0,1,2.72.153a.286.286,0,0,1,.016.1.281.281,0,0,1-.016.1A.274.274,0,0,1,2.664.43a.269.269,0,0,1-.078.054.309.309,0,0,1-.1.016A.239.239,0,0,1,2.308.43.242.242,0,0,1,2.236.253Z" transform="translate(0 1.022)"/><path class="bg" d="M0,3.04V2.58H.533V.993H.99V2.58h.474v.46ZM.081.253a.241.241,0,0,1,.07-.18A.246.246,0,0,1,.328,0a.243.243,0,0,1,.18.073.252.252,0,0,1,.07.18A.25.25,0,0,1,.509.43.241.241,0,0,1,.328.5.243.243,0,0,1,.151.43.239.239,0,0,1,.081.253Zm.7,0A.243.243,0,0,1,.856.073.236.236,0,0,1,1.03,0a.235.235,0,0,1,.1.019.236.236,0,0,1,.081.054.282.282,0,0,1,.054.081.235.235,0,0,1,.019.1.231.231,0,0,1-.019.1A.325.325,0,0,1,1.211.43.282.282,0,0,1,1.13.484.286.286,0,0,1,1.03.5.233.233,0,0,1,.856.43.242.242,0,0,1,.783.253Z" transform="translate(3.638 1.022)"/><path class="bg" d="M.533,1.587V0H.987V1.587h.479v.46H0v-.46ZM.126,2.814A.25.25,0,0,1,.2,2.634a.236.236,0,0,1,.175-.073.273.273,0,0,1,.1.019.3.3,0,0,1,.083.054.316.316,0,0,1,.051.081.273.273,0,0,1,0,.2.354.354,0,0,1-.051.078.241.241,0,0,1-.083.051.226.226,0,0,1-.1.022A.236.236,0,0,1,.2,2.992.244.244,0,0,1,.126,2.814Zm.7,0a.257.257,0,0,1,.07-.18.243.243,0,0,1,.18-.073.237.237,0,0,1,.178.073.24.24,0,0,1,.075.18.234.234,0,0,1-.075.178.237.237,0,0,1-.178.073A.243.243,0,0,1,.9,2.992.25.25,0,0,1,.831,2.814Z" transform="translate(5.08 2.015)"/><path class="bg" d="M0,1.587H.869V0h.457V1.795l0,.024a.238.238,0,0,1-.019.089.208.208,0,0,1-.051.073.192.192,0,0,1-.073.048.215.215,0,0,1-.091.019H0ZM0,2.814a.245.245,0,0,1,.07-.18.242.242,0,0,1,.178-.073.254.254,0,0,1,.183.073.257.257,0,0,1,.07.18.25.25,0,0,1-.07.178.254.254,0,0,1-.183.073A.242.242,0,0,1,.07,2.992.239.239,0,0,1,0,2.814Zm.7,0a.248.248,0,0,1,.073-.18.237.237,0,0,1,.178-.073.237.237,0,0,1,.178.073.248.248,0,0,1,.073.18.242.242,0,0,1-.073.178.237.237,0,0,1-.178.073.237.237,0,0,1-.178-.073A.242.242,0,0,1,.7,2.814Z" transform="translate(6.53 2.015)"/><path class="bg" d="M.977.363C.971.3.969.237.969.175s0-.118,0-.175h.455l0,.089c0,.048,0,.1.005.164s.005.132.005.2l.008.207c0,.065,0,.121.005.17v.191c0,.032,0,.067,0,.1s0,.065,0,.1l-.005.089h.39v.46H1.375a2.365,2.365,0,0,1-.156.5,1.5,1.5,0,0,1-.269.406,1.232,1.232,0,0,1-.4.277A1.431,1.431,0,0,1,0,3.065V2.6a.956.956,0,0,0,.385-.083.766.766,0,0,0,.269-.2.978.978,0,0,0,.175-.285,1.93,1.93,0,0,0,.1-.347A2.89,2.89,0,0,0,.977,1.3c.005-.132.011-.264.011-.393,0-.094,0-.186,0-.28Z" transform="translate(8.112 2.287)"/><path class="bg" d="M0,2.553H2.545V2.228a1.992,1.992,0,0,0-.011-.25.24.24,0,0,0-.051-.135.187.187,0,0,0-.116-.054,1.94,1.94,0,0,0-.21-.011c-.226,0-.452,0-.678,0H.8a.393.393,0,0,1-.167-.032.29.29,0,0,1-.118-.081.3.3,0,0,1-.07-.116A.48.48,0,0,1,.422,1.4.657.657,0,0,1,.5,1.1,1.612,1.612,0,0,1,.853.622,2.166,2.166,0,0,1,1.332.277,2.477,2.477,0,0,1,1.894.07,2.454,2.454,0,0,1,2.478,0h.038c0,.083-.005.161-.011.231L2.5.457a1.939,1.939,0,0,0-.455.054A1.931,1.931,0,0,0,1.6.673a1.884,1.884,0,0,0-.4.269,1.432,1.432,0,0,0-.3.379H1.983c.129,0,.248,0,.35.005a1.718,1.718,0,0,1,.266.032.516.516,0,0,1,.191.075.407.407,0,0,1,.126.143.716.716,0,0,1,.07.229,2.289,2.289,0,0,1,.019.331V2.6c0,.057,0,.116,0,.183a.211.211,0,0,1-.067.161.22.22,0,0,1-.159.067H0Z" transform="translate(9.917 1.049)"/><path class="bh" d="M.457,1.8v.915a.519.519,0,0,0,.051.242.45.45,0,0,0,.137.17.53.53,0,0,0,.194.1.787.787,0,0,0,.223.032.773.773,0,0,0,.223-.032.542.542,0,0,0,.2-.1.477.477,0,0,0,.137-.17.555.555,0,0,0,.051-.242V.826h.46V2.717a.959.959,0,0,1-.091.433.929.929,0,0,1-.242.312,1.038,1.038,0,0,1-.342.191,1.157,1.157,0,0,1-.393.065A1.157,1.157,0,0,1,.67,3.654a1.065,1.065,0,0,1-.342-.191A.932.932,0,0,1,0,2.717V1.8ZM.751.25A.252.252,0,0,1,.821.07.246.246,0,0,1,1,0a.252.252,0,0,1,.1.019.225.225,0,0,1,.078.054.233.233,0,0,1,.057.078.235.235,0,0,1,.016.1.23.23,0,0,1-.016.1.232.232,0,0,1-.057.078A.225.225,0,0,1,1.1.479.255.255,0,0,1,1,.5.237.237,0,0,1,.821.428.25.25,0,0,1,.751.25Z" transform="translate(14.593 1.224)"/><path class="bh" d="M1.956,2.136a2.4,2.4,0,0,1-.159.492,1.357,1.357,0,0,1-.264.406,1.274,1.274,0,0,1-.4.277,1.447,1.447,0,0,1-.552.113v-.46a.868.868,0,0,0,.355-.073.779.779,0,0,0,.256-.178.991.991,0,0,0,.175-.258A2.523,2.523,0,0,0,1.5,2.134c-.091.011-.18.019-.264.024s-.161.008-.234.008-.143,0-.215-.005S.643,2.147.573,2.139h0L.527,2.131.482,2.123c-.057-.008-.113-.016-.172-.03a.738.738,0,0,1-.153-.046.329.329,0,0,1-.113-.081A.179.179,0,0,1,0,1.838V1A1.008,1.008,0,0,1,.075.613.969.969,0,0,1,.293.3.961.961,0,0,1,.611.081.947.947,0,0,1,1,0H1.7a.3.3,0,0,1,.121.024.273.273,0,0,1,.1.067.3.3,0,0,1,.067.1A.358.358,0,0,1,2,.309c0,.065,0,.132,0,.2s0,.145.008.223.005.178.011.272.005.188.005.285,0,.213-.008.32l0,.062h.42v.46ZM1,1.708c.091,0,.186-.005.277-.013s.186-.024.277-.043l.008-.194c0-.073,0-.137,0-.2,0-.11,0-.226-.005-.344S1.552.689,1.55.587V.525l0-.038V.46L1,.457A.518.518,0,0,0,.788.5.652.652,0,0,0,.616.619.516.516,0,0,0,.5.794.563.563,0,0,0,.455,1l0,.648q.093.02.161.032A1.207,1.207,0,0,0,.748,1.7c.038,0,.075.005.11.005l.113,0Z" transform="translate(17.112 1.926)"/><path class="bh" d="M0,2.553H2.543V2.228a1.993,1.993,0,0,0-.011-.25.24.24,0,0,0-.051-.135.18.18,0,0,0-.116-.054,1.9,1.9,0,0,0-.21-.011c-.226,0-.452,0-.678,0H.8A.4.4,0,0,1,.63,1.743a.309.309,0,0,1-.118-.081.292.292,0,0,1-.067-.116A.407.407,0,0,1,.42,1.4.691.691,0,0,1,.5,1.1,1.612,1.612,0,0,1,.85.622,2.182,2.182,0,0,1,1.332.277,2.386,2.386,0,0,1,1.894.07,2.422,2.422,0,0,1,2.478,0h.035c0,.083-.005.161-.011.231L2.494.457a1.956,1.956,0,0,0-.455.054,1.931,1.931,0,0,0-.447.161,1.955,1.955,0,0,0-.4.269,1.371,1.371,0,0,0-.3.379H1.98c.132,0,.25,0,.35.005a1.718,1.718,0,0,1,.266.032.53.53,0,0,1,.194.075.468.468,0,0,1,.126.143.8.8,0,0,1,.067.229A2.289,2.289,0,0,1,3,2.136V2.6c0,.057,0,.116,0,.183a.211.211,0,0,1-.067.161.22.22,0,0,1-.159.067H0Z" transform="translate(19.531 1.049)"/><path class="bh" d="M.1.452A.214.214,0,0,1,.081.393L.075.334A.362.362,0,0,1,.1.21.3.3,0,0,1,.159.1a.239.239,0,0,1,.1-.075A.3.3,0,0,1,.4,0h.28V.21L.4.207a.121.121,0,0,0-.1.04.145.145,0,0,0-.03.086A.144.144,0,0,0,.291.412a.118.118,0,0,0,.091.04H.7V.665H0V.452ZM.632,4.057H.175V1H.632Z" transform="translate(22.956 0)"/></g><g transform="translate(0 2.997)"><g transform="translate(0)"><path class="bh" d="M9.7,8.069a6.393,6.393,0,0,1-2.51-.2c-1.065,1.727-2.346,3.2-4.211,3.476A2.426,2.426,0,0,1,.508,7.5c.877-1.1,2.462-.987,2.691.14a.691.691,0,1,0-.065,1.321A3.311,3.311,0,0,0,5.05,7.383a4.259,4.259,0,0,0-1.485-.062A2.353,2.353,0,0,1,4.3,6.126a5.341,5.341,0,0,1,1.472.116C7.27,3.716,8.946.293,12.546,0a5.207,5.207,0,0,1,1.7,1.219C11.48,3.541,11.241,8,12.153,11.023a5.586,5.586,0,0,1-2.282.355A7.811,7.811,0,0,1,9.7,8.069ZM9.9,6.864a16.569,16.569,0,0,1,2.093-5.392c-1.7.038-2.752,2.677-4.122,5.214A6.656,6.656,0,0,0,9.9,6.864Z" transform="translate(0 0)"/><path class="bh" d="M.147,3.032A3.81,3.81,0,0,1,3.521,0a1.445,1.445,0,0,1,1.5,1.994c-.331,1.192-1.916.861-1.448-.242.178-.406.4-.748-.048-.748-.533,0-1.434.775-1.7,1.929C1.465,4.4,2.149,4.924,2.975,4.924a2.641,2.641,0,0,0,2.5-1.711,1.211,1.211,0,0,1,.659.328A4.141,4.141,0,0,1,2.367,6.4C.69,6.4-.413,5.05.147,3.032Z" transform="translate(11.966 4.781)"/><path class="bh" d="M.337,2.9A4.361,4.361,0,0,1,3.178.164c1.117-.6,2.728.457,2.182,2.8a6.379,6.379,0,0,1-.546,1.485A1.3,1.3,0,0,0,6.07,3.527a1.119,1.119,0,0,1,.659.328A2.195,2.195,0,0,1,4.322,5.239a3.527,3.527,0,0,1-2.4,1.485C.224,6.85-.473,4.972.337,2.9ZM2.379,5.212a1.279,1.279,0,0,0,.864-.455A3.1,3.1,0,0,1,2.2,2.066a3.194,3.194,0,0,0-.673,1.369C1.238,4.679,1.747,5.2,2.379,5.212Zm1.434-1.23a4.516,4.516,0,0,0,.215-.444c.952-2.424-.406-3.309-.8-1.725A2.264,2.264,0,0,0,3.813,3.982Z" transform="translate(16.769 4.466)"/><path class="bh" d="M3.831,4.149c.342-.874.71-1.714.85-2.031s.1-.622-.215-.622-.877.382-1.485,1.738L1.765,6.29H0L2.448.242H4.173L3.934.837A1.962,1.962,0,0,1,5.392,0c.952,0,1.585.888,1.014,2.233-.369.874-.737,1.789-.864,2.093s-.151.659.178.659c.344,0,.826-.546,1.345-1.711a1.188,1.188,0,0,1,.659.315c-.533,1.4-1.394,2.868-2.6,2.868S3.363,5.365,3.831,4.149Z" transform="translate(21.075 4.719)"/></g></g><g transform="translate(14.529 0)"><path class="bg" d="M1.079,0A1.082,1.082,0,0,0,.022.961c-.11.608.215.971.716.971A1.107,1.107,0,0,0,1.8.966.731.731,0,0,0,1.079,0Z" transform="translate(10.159 2.777)"/><path class="bg" d="M1,0A1.021,1.021,0,0,0,0,.85H1.682A.646.646,0,0,0,1,0Z" transform="translate(7.585 2.774)"/><path class="bg" d="M1,0A1.022,1.022,0,0,0,0,.85H1.682A.646.646,0,0,0,1,0Z" transform="translate(17.677 2.774)"/><path class="bg" d="M19.34,0H5.551A5.567,5.567,0,0,0,0,5.551,1.415,1.415,0,0,0,1.415,6.966H17.26a4.13,4.13,0,0,0,4.117-4.117V2.037A2.037,2.037,0,0,0,19.34,0ZM3.837,4.692A1.327,1.327,0,0,0,5,4.047H5.37a1.775,1.775,0,0,1-1.582.923A1.218,1.218,0,0,1,2.564,3.406,1.845,1.845,0,0,1,4.343,1.838a1.151,1.151,0,0,1,1.251.931H5.233a.873.873,0,0,0-.939-.654A1.468,1.468,0,0,0,2.879,3.406C2.739,4.195,3.164,4.692,3.837,4.692Zm3.285-1.87a.814.814,0,0,0-.861.7l-.25,1.418H5.7l.422-2.4H6.43l-.083.479A1.014,1.014,0,0,1,7.264,2.5l-.057.323ZM9.53,3.853H7.542a.689.689,0,0,0,.71.866.907.907,0,0,0,.866-.538h.328a1.305,1.305,0,0,1-1.238.8.941.941,0,0,1-.961-1.235,1.405,1.405,0,0,1,1.4-1.232.885.885,0,0,1,.939,1.106C9.565,3.708,9.551,3.769,9.53,3.853Zm2.524,1.09h-.307l.091-.533a1.227,1.227,0,0,1-1.047.568.94.94,0,0,1-.928-1.24A1.4,1.4,0,0,1,11.23,2.51a.811.811,0,0,1,.848.562l.091-.527h.307Zm1.415-.264h.28l-.048.264h-.328c-.417,0-.611-.172-.527-.651L13.108,2.8h-.334l.048-.258h.334l.1-.6h.307l-.1.6h.662l-.048.258h-.662l-.264,1.488C13.1,4.585,13.186,4.679,13.469,4.679Zm.928.264H14.09l.422-2.4h.307Zm.352-2.849a.183.183,0,0,1-.186-.229.27.27,0,0,1,.264-.223.175.175,0,0,1,.18.223A.269.269,0,0,1,14.75,2.093Zm1.259,2.849h-.355l-.535-2.4h.328L15.89,4.63l1.173-2.085H17.4Zm3.613-1.09H17.634a.688.688,0,0,0,.71.866.9.9,0,0,0,.864-.538h.331a1.305,1.305,0,0,1-1.238.8.943.943,0,0,1-.963-1.235,1.408,1.408,0,0,1,1.4-1.232.885.885,0,0,1,.939,1.106C19.657,3.708,19.644,3.769,19.622,3.853Z" transform="translate(0)"/></g></g></g><g transform="translate(566.737 204.061)"><path class="bi" d="M351.661,139.558l5.191,147.99a10.9,10.9,0,0,0,10.9,10.523H622.687a10.9,10.9,0,0,0,10.9-10.644L637.156,137.7a10.906,10.906,0,0,0-10.974-11.164l-263.7,1.731A10.9,10.9,0,0,0,351.661,139.558Z" transform="translate(-351.25 -126.137)"/><path class="bf" d="M622.839,298.629H367.9a11.268,11.268,0,0,1-11.3-10.913l-5.191-147.992a11.307,11.307,0,0,1,11.226-11.7l263.7-1.731a11.387,11.387,0,0,1,8.14,3.382,11.21,11.21,0,0,1,3.241,8.195l-3.568,149.721A11.243,11.243,0,0,1,622.839,298.629ZM626.41,127.1h-.071l-263.7,1.731A10.5,10.5,0,0,0,352.217,139.7l5.191,147.99a10.464,10.464,0,0,0,10.5,10.136H622.839a10.569,10.569,0,0,0,10.5-10.253l3.568-149.721a10.5,10.5,0,0,0-10.5-10.752Z" transform="translate(-351.404 -126.29)"/><path class="bj" d="M351.954,147.057H636.768l.456-7.8A11.95,11.95,0,0,0,625.2,126.6l-263.594,2.083a9.887,9.887,0,0,0-9.808,10.075Z" transform="translate(-351.163 -126.099)"/><path class="bk" d="M360.776,146.867v85.645h87.18V146.417Z" transform="translate(-345.666 -113.968)"/><rect class="bk" width="37.923" height="37.923" transform="translate(186.542 38.645)"/><rect class="bk" width="37.923" height="37.923" transform="translate(231.285 38.645)"/><rect class="bk" width="37.923" height="37.923" transform="translate(141.051 38.645)"/><rect class="bl" width="96.978" height="9.084" transform="translate(172.23 98.679)"/><rect class="bl" width="121.233" height="2.812" transform="translate(147.975 112.503)"/><rect class="bl" width="23.193" height="2.812" transform="translate(149.118 81.404)"/><rect class="bl" width="23.193" height="2.812" transform="translate(193.907 81.404)"/><rect class="bl" width="23.193" height="2.812" transform="translate(238.65 81.404)"/><rect class="bl" width="38.998" height="2.812" transform="translate(141.051 117.072)"/><rect class="bl" width="121.233" height="2.812" transform="translate(147.975 121.587)"/><rect class="bl" width="128.157" height="2.812" transform="translate(141.051 126.103)"/><rect class="bl" width="128.157" height="2.812" transform="translate(141.051 130.618)"/><rect class="bl" width="121.233" height="2.812" transform="translate(147.975 148.874)"/><rect class="bl" width="128.157" height="2.812" transform="translate(141.051 153.389)"/><rect class="bl" width="128.157" height="2.812" transform="translate(141.051 157.905)"/><rect class="bl" width="123.001" height="2.812" transform="translate(141.051 135.134)"/><rect class="bl" width="121.233" height="2.812" transform="translate(147.975 139.649)"/><rect class="bl" width="103.833" height="2.812" transform="translate(141.051 144.165)"/><g class="bm" transform="translate(14.734 51.767)"><path class="bn" d="M385.345,208a24.8,24.8,0,1,1,24.8-24.8A24.829,24.829,0,0,1,385.345,208Zm0-47.99a23.189,23.189,0,1,0,23.188,23.19A23.215,23.215,0,0,0,385.345,160.012Z" transform="translate(-360.543 -158.4)"/></g><circle class="ae" cx="13.478" cy="13.478" r="13.478" transform="translate(26.057 63.09)"/><g class="bm" transform="translate(77.49 7.648)"><path class="bn" d="M424.269,180.636a24.8,24.8,0,1,1,24.8-24.8A24.829,24.829,0,0,1,424.269,180.636Zm0-47.99a23.189,23.189,0,1,0,23.188,23.188A23.214,23.214,0,0,0,424.269,132.646Z" transform="translate(-399.469 -131.034)"/></g><ellipse class="ae" cx="12.683" cy="12.683" rx="12.683" ry="12.683" transform="matrix(0.155, -0.988, 0.988, 0.155, 87.79, 43.006)"/><g class="bm" transform="translate(10.769 6.589)"><path class="ae" d="M358.083,133.124l1.813-2.747,9.8,8.589-1.5,2.094Z" transform="translate(-358.083 -130.377)"/><path class="ae" d="M369.851,133.124l-1.813-2.747-9.8,8.589,1.5,2.094Z" transform="translate(-357.988 -130.377)"/></g><rect class="ae" width="87.77" height="4.4" transform="translate(190.944 8.454)"/></g><g transform="translate(295.804 147.757)"><path class="bo" d="M183.349,92.586v38.085l45.553.389.615-39.7Z" transform="translate(-183.349 -91.365)"/><path class="bp" d="M212.22,91.365l2.973,5-1.486,34.655-2.1.036Z" transform="translate(-166.052 -91.365)"/><path class="ae" d="M188.4,102.415l4.208-6.106L215.35,115.4l-3.489,4.654Z" transform="translate(-180.261 -88.339)"/><path class="ae" d="M215.713,102.415,211.5,96.308,188.758,115.4l3.489,4.654Z" transform="translate(-180.039 -88.339)"/></g><g transform="translate(672.583 468.309)"><path class="bo" d="M532.6,384.558H434.183a14.688,14.688,0,0,1-14.68-14.194l-2.186-64.732A14.689,14.689,0,0,1,432,290.447H534.58a14.689,14.689,0,0,1,14.682,15.138l-1.978,64.732A14.691,14.691,0,0,1,532.6,384.558Z" transform="translate(-416.904 -290.044)"/><path class="bq" d="M532.753,385.112H434.334a15.03,15.03,0,0,1-15.082-14.582L417.066,305.8a15.094,15.094,0,0,1,15.084-15.6H534.733a15.092,15.092,0,0,1,15.085,15.554l-1.978,64.731A15.024,15.024,0,0,1,532.753,385.112ZM432.15,291a14.287,14.287,0,0,0-14.277,14.768l2.186,64.732a14.227,14.227,0,0,0,14.276,13.8h98.419a14.221,14.221,0,0,0,14.281-13.85l1.978-64.731A14.288,14.288,0,0,0,534.733,291Z" transform="translate(-417.058 -290.197)"/><rect class="bl" width="90.139" height="53.534" transform="translate(20.133 10.824)"/><path class="ae" d="M452.551,305.151v26.966L475.585,317.4Z" transform="translate(-395.329 -281.043)"/><rect class="bl" width="90.139" height="4.895" transform="translate(20.133 74.225)"/><rect class="ae" width="23.335" height="4.895" transform="translate(20.133 74.225)"/></g><g transform="translate(585.769 437.506)"><g transform="translate(12.17 4.469)"><path class="br" d="M399.5,294.1l-4.7,13.46C397.391,300.121,401.13,295.294,399.5,294.1Zm-4.7,13.46-4.714,13.455C391.268,320.661,392.187,314.995,394.8,307.559Zm4.7-13.46-4.7,13.46C397.391,300.121,401.13,295.294,399.5,294.1Zm-4.7,13.46-4.714,13.455C391.268,320.661,392.187,314.995,394.8,307.559Zm13.579,11.659,4.571,2.591,4.933-13.465-5.286-.884c.094-.5.189-1,.255-1.495a34.621,34.621,0,0,0,.445-6.711l5.53-3.469-2.52-11.859-5.3,5.067a15.345,15.345,0,0,0-2.71-3.95,10.167,10.167,0,0,0-.917-.893l3.24-7.482L402,273.863h0l-2.07,7.539a14.356,14.356,0,0,0-5.838,1.365l-.951-7.127-9.492,7.186,2.192,6.316a35.875,35.875,0,0,0-4.63,6.742l-4.574-2.58L371.7,306.769l5.285.885a36.555,36.555,0,0,0-.7,8.2l-5.528,3.469,2.518,11.861,5.3-5.067a14.916,14.916,0,0,0,3.631,4.83l-3.244,7.493,8.486,3.31,1.314-4.78.892-3.263a14.408,14.408,0,0,0,5.851-1.362l.938,7.124,9.492-7.184-2.192-6.317a35.1,35.1,0,0,0,3.734-5.165C407.791,320.287,408.082,319.758,408.375,319.218ZM394.8,307.559c-2.609,7.435,0,15.1-4.714,13.455s-6.449-9.025-3.843-16.447,8.543-12.115,13.26-10.468S397.391,300.121,394.8,307.559Zm4.7-13.46-4.7,13.46C397.391,300.121,401.13,295.294,399.5,294.1Zm-4.7,13.46-4.714,13.455C391.268,320.661,392.187,314.995,394.8,307.559Z" transform="translate(-370.758 -273.863)"/></g><path class="bs" d="M416.612,323.506l4.933-13.465-5.032-2.378-.814-.38.529-7.416,5.585-2.728-1.844-11.516L407.8,281.662,410.044,287l4.24-8.64-8.622-2.805-3.542-1.156-8.5-3.313-1.588,5.8-7.393-3.513-9.492,7.184,2.879,7.768-8.877,24.61-4.384,15.983,8.427.922-2.742,6.334,8.5,3.313,12.164,3.963-1.952-3.908-1.23-2.339,4.5,1.467,7.68,2.5,9.493-7.184-5.872-6.916,7.413-4.566Zm-26.707-17.242c2.609-7.435,8.543-12.116,13.26-10.468l-4.7,13.46-4.714,13.455C389.022,321.049,387.3,313.686,389.905,306.264Z" transform="translate(-362.255 -271.091)"/><g transform="translate(0 0.002)"><path class="bt" d="M405.4,319.536l4.93-13.466-5.29-.884a36.934,36.934,0,0,0,.7-8.195l5.53-3.468-2.521-11.862-5.3,5.064a14.8,14.8,0,0,0-3.626-4.838l3.244-7.485-8.495-3.31-2.2,8.038a14.431,14.431,0,0,0-5.843,1.362l-.94-7.119-9.492,7.181,2.184,6.317a36.541,36.541,0,0,0-4.632,6.75l-4.574-2.581-4.93,13.465,5.288.885a37.037,37.037,0,0,0-.7,8.195l-5.528,3.468,2.52,11.862,5.3-5.064a14.826,14.826,0,0,0,3.627,4.838l-3.244,7.485,8.495,3.31,2.2-8.038a14.418,14.418,0,0,0,5.841-1.362l.942,7.119,9.493-7.181-2.186-6.316a36.385,36.385,0,0,0,4.632-6.75Zm-22.874-.793c-4.722-1.654-6.441-9.02-3.837-16.451s8.541-12.114,13.263-10.46,6.439,9.019,3.837,16.451S387.253,320.4,382.531,318.743Z" transform="translate(-363.209 -271.092)"/></g><path class="bu" d="M407.289,288.965l-12.163-3.959-5.529,3.468,12.164,3.96Z" transform="translate(-347.055 -262.573)"/><path class="bv" d="M398.029,314.007l-12.172-3.964-2.186-6.316,12.165,3.963Z" transform="translate(-350.682 -251.112)"/><path class="bu" d="M385.925,280.63l6.671,1.93,2.257-2.156,4.428,1.442,2.052-4.738-12.164-3.963Z" transform="translate(-349.303 -269.833)"/><path class="bu" d="M374.932,309.045,381.3,311.7l-.53-4.014S377.345,309.494,374.932,309.045Z" transform="translate(-356.033 -248.69)"/><path class="bu" d="M375.542,287.205l10.727,5.672a16.719,16.719,0,0,1,2.758-2.921S386.231,278.127,375.542,287.205Z" transform="translate(-355.659 -263.324)"/></g><g transform="translate(135.657 368.226)"><path class="bo" d="M196.767,312.379H117a11.9,11.9,0,0,1-11.9-11.5l-1.772-52.462a11.9,11.9,0,0,1,11.9-12.306h83.139a11.905,11.905,0,0,1,11.9,12.269l-1.6,52.462A11.9,11.9,0,0,1,196.767,312.379Z" transform="translate(-102.919 -235.699)"/><path class="bf" d="M196.926,312.949H117.163a12.268,12.268,0,0,1-12.308-11.9l-1.77-52.46a12.316,12.316,0,0,1,12.306-12.731H198.53a12.317,12.317,0,0,1,12.308,12.69l-1.6,52.463A12.258,12.258,0,0,1,196.926,312.949Zm-81.535-76.273A11.5,11.5,0,0,0,103.9,248.56l1.77,52.462a11.453,11.453,0,0,0,11.491,11.11h79.763a11.445,11.445,0,0,0,11.491-11.146l1.6-52.463a11.5,11.5,0,0,0-11.491-11.847Z" transform="translate(-103.078 -235.858)"/><g transform="translate(15.684 19.258)"><path class="ae" d="M132.339,247.64l-19.666,22.8,20.027,17v-8.775l-11.586-10.03,10.76-12.165Z" transform="translate(-112.673 -247.64)"/></g><g transform="translate(68.251 20.282)"><path class="ae" d="M146.5,248.266l19.666,22.8-20.027,17v-8.775l11.586-10.03-12.893-13.643Z" transform="translate(-144.834 -248.266)"/></g><g transform="translate(39.634 21.306)"><path class="ae" d="M127.326,286.642l17.137-37.749h8.052l-19.408,37.749Z" transform="translate(-127.326 -248.893)"/></g></g></g></svg>