<?xml version="1.0" standalone="no"?>
<!DOCTYPE svg PUBLIC "-//W3C//DTD SVG 20010904//EN"
 "http://www.w3.org/TR/2001/REC-SVG-20010904/DTD/svg10.dtd">
<svg version="1.0" xmlns="http://www.w3.org/2000/svg"
 width="235.000000pt" height="235.000000pt" viewBox="0 0 235.000000 235.000000"
 preserveAspectRatio="xMidYMid meet">
<metadata>
Created by potrace 1.14, written by Peter Selinger 2001-2017
</metadata>
<g transform="translate(0.000000,235.000000) scale(0.100000,-0.100000)"
fill="#000000" stroke="none">
<path d="M1195 1849 c-106 -37 -188 -117 -225 -223 -29 -81 -27 -148 6 -183
l26 -28 566 1 c566 0 567 0 613 23 108 52 160 137 161 265 1 77 -21 123 -72
149 -32 16 -77 17 -525 17 -466 -1 -493 -2 -550 -21z m729 -104 c-4 -8 -10
-12 -15 -9 -14 8 -10 24 6 24 9 0 12 -6 9 -15z m-650 -6 c25 -12 41 -37 31
-47 -3 -3 -15 4 -28 16 -31 30 -77 28 -111 -3 -14 -13 -26 -32 -27 -42 0 -10
-2 -26 -4 -35 -2 -10 5 -28 14 -40 23 -28 73 -28 111 1 33 24 41 14 11 -13
-44 -40 -131 -34 -148 10 -22 57 6 126 60 149 40 17 59 18 91 4z m556 -18 c0
-14 6 -19 20 -16 11 2 20 0 20 -6 0 -5 -11 -9 -25 -9 -18 0 -25 -5 -25 -20 0
-11 -1 -23 -2 -27 -1 -5 -4 -22 -8 -40 -6 -26 -4 -32 14 -38 20 -7 20 -7 2
-12 -19 -5 -50 23 -41 37 2 3 7 27 10 53 5 32 3 47 -5 47 -6 0 -8 5 -5 10 4 6
11 8 16 5 5 -4 9 3 9 14 0 12 5 21 10 21 6 0 10 -9 10 -19z m-467 -34 c-5 -9
-3 -9 8 -1 26 20 49 24 49 9 0 -8 -6 -12 -13 -9 -21 8 -46 -28 -56 -80 -8 -45
-17 -64 -25 -55 -4 4 9 89 19 129 2 8 4 19 4 23 1 5 6 5 11 2 6 -4 7 -12 3
-18z m193 1 c12 -13 17 -32 15 -55 -1 -9 -21 -13 -66 -13 -50 0 -65 -3 -65
-14 0 -17 27 -46 41 -46 15 0 53 21 61 34 9 14 22 0 13 -14 -14 -23 -68 -39
-94 -28 -30 11 -41 25 -41 55 0 73 91 128 136 81z m170 -5 c10 -11 13 -10 17
9 13 49 17 6 6 -58 -7 -38 -12 -72 -11 -76 1 -5 -2 -8 -8 -8 -5 0 -10 5 -10
11 0 5 -5 7 -10 4 -35 -22 -70 -23 -95 -3 -29 23 -32 57 -8 99 27 45 91 57
119 22z m174 -58 c-7 -41 -17 -75 -21 -75 -11 0 -11 4 1 76 13 72 19 89 27 81
3 -4 0 -40 -7 -82z m70 7 l16 -67 39 72 c21 40 43 70 47 67 5 -3 -3 -27 -18
-52 -15 -26 -35 -59 -43 -74 -30 -53 -49 -27 -67 92 -10 67 8 40 26 -38z m246
57 c8 -6 14 -24 14 -40 0 -29 0 -29 -65 -29 -58 0 -65 -2 -65 -20 0 -29 35
-44 71 -30 16 7 29 16 29 21 0 5 5 9 10 9 18 0 10 -19 -14 -36 -71 -46 -132
-2 -110 79 15 53 90 79 130 46z"/>
<path d="M1472 1674 c-39 -27 -28 -43 31 -41 46 2 52 5 49 22 -7 37 -43 45
-80 19z"/>
<path d="M1635 1665 c-14 -13 -25 -33 -25 -45 0 -23 33 -60 54 -60 45 0 82 82
51 113 -23 24 -52 21 -80 -8z"/>
<path d="M2126 1669 c-35 -28 -26 -38 34 -37 40 0 50 3 50 17 0 42 -43 53 -84
20z"/>
<path d="M717 1650 c-106 -41 -181 -118 -287 -293 l-54 -89 -42 6 c-46 5 -62
-3 -89 -46 l-17 -28 40 0 c23 0 44 -5 47 -11 4 -5 -11 -28 -33 -49 -63 -62
-123 -65 -130 -6 -3 21 2 29 26 39 33 14 31 32 -6 51 -72 36 -172 -40 -172
-132 0 -71 44 -130 113 -152 101 -32 234 40 329 177 27 41 31 42 66 36 20 -4
56 -7 78 -6 l42 0 4 -103 c2 -57 7 -106 11 -110 7 -8 134 10 144 19 3 3 -2 37
-10 76 -17 82 -15 232 3 306 20 77 64 165 109 216 l40 46 -22 20 c-65 58 -107
66 -190 33z m15 -167 c-22 -49 -51 -124 -64 -168 -12 -44 -26 -83 -31 -86 -12
-9 -99 -1 -110 10 -14 14 99 219 154 283 25 27 80 61 88 53 2 -3 -14 -44 -37
-92z"/>
<path d="M1282 1367 c-88 -32 -176 -150 -187 -252 -1 -11 -3 -24 -4 -28 -2
-12 -82 -47 -108 -47 -34 0 -70 20 -81 45 -25 55 19 168 77 197 19 9 37 15 41
13 4 -3 2 -23 -4 -46 -9 -36 -8 -42 9 -55 21 -16 54 -9 72 15 19 24 16 95 -5
121 -24 30 -90 37 -146 16 -164 -63 -223 -318 -88 -382 64 -30 172 -14 225 33
17 16 19 15 40 -10 46 -56 112 -56 195 0 28 19 52 39 52 44 0 5 9 9 20 9 19 0
20 -2 5 -36 -8 -20 -15 -39 -15 -43 0 -3 25 -6 55 -6 l54 -1 52 129 c50 124
92 187 124 187 25 0 22 -24 -14 -110 -41 -100 -43 -152 -9 -187 62 -61 151
-18 212 102 18 36 22 53 14 62 -17 21 -35 15 -47 -15 -13 -32 -57 -82 -72 -82
-22 0 -18 31 16 111 49 116 52 154 14 192 -25 24 -35 28 -61 23 -18 -3 -39
-13 -48 -21 -19 -17 -34 -20 -25 -5 4 6 -16 10 -53 10 l-59 0 -50 -127 c-28
-70 -55 -129 -61 -131 -6 -2 -3 17 7 45 59 165 -13 278 -147 230z m94 -132
c-6 -47 -25 -105 -35 -105 -10 0 -28 33 -36 68 -8 40 1 87 23 108 15 15 17 15
35 -7 14 -17 17 -33 13 -64z m-138 0 c-11 -11 13 -90 37 -127 14 -21 25 -39
25 -42 0 -2 -13 -9 -29 -16 -56 -23 -90 21 -77 101 6 38 31 89 44 89 3 0 3 -2
0 -5z"/>
<path d="M1817 833 c-15 -14 -6 -33 16 -33 18 0 19 2 7 10 -13 9 -13 11 0 20
13 8 13 10 -1 10 -9 0 -19 -3 -22 -7z"/>
<path d="M457 766 c-7 -19 4 -27 21 -17 10 6 10 10 -1 20 -12 9 -16 8 -20 -3z"/>
<path d="M554 766 c-4 -9 -4 -20 0 -23 3 -4 12 -1 18 5 9 9 9 15 0 24 -9 9
-13 7 -18 -6z"/>
<path d="M603 772 c-8 -5 -9 -13 -3 -22 7 -12 12 -12 22 -2 14 14 -1 35 -19
24z"/>
<path d="M1695 764 c-45 -15 -88 -58 -83 -83 2 -11 16 -17 48 -19 71 -4 90
-11 90 -31 0 -22 -41 -29 -135 -21 l-60 5 0 43 c1 52 -13 65 -61 59 -49 -7
-66 -26 -69 -82 -2 -51 3 -57 61 -59 24 -1 33 -5 29 -14 -3 -8 -5 -16 -5 -18
0 -3 -12 -9 -26 -14 -29 -11 -27 -37 2 -32 23 4 64 47 64 68 0 11 21 14 115
14 l115 0 0 39 c0 52 -19 69 -76 69 -25 0 -49 3 -52 7 -10 9 28 35 61 42 31 6
39 14 29 30 -5 8 -18 7 -47 -3z m-170 -116 c0 -37 -3 -40 -40 -40 -30 0 -35 2
-35 22 0 33 21 57 49 56 23 -1 26 -5 26 -38z"/>
<path d="M1819 763 c-1 -29 -1 -115 0 -150 1 -21 6 -33 15 -33 11 0 14 21 15
100 1 83 -1 100 -14 100 -8 0 -15 -8 -16 -17z"/>
<path d="M1051 759 c-24 -10 -71 -54 -71 -67 1 -22 22 -31 75 -34 53 -3 60 -5
63 -25 3 -18 -2 -23 -20 -24 -36 -1 -142 -1 -155 0 -8 1 -13 16 -13 41 0 29
-4 40 -15 40 -11 0 -15 -12 -16 -47 -1 -71 -5 -86 -33 -108 -36 -29 -34 -47 3
-34 18 6 36 24 46 45 l16 34 72 -1 c157 -2 147 -5 147 45 0 52 -12 65 -65 64
-57 0 -65 1 -65 10 0 12 56 42 79 42 12 0 21 6 21 15 0 17 -32 19 -69 4z"/>
<path d="M1310 745 c0 -8 7 -15 15 -15 8 0 15 7 15 15 0 8 -7 15 -15 15 -8 0
-15 -7 -15 -15z"/>
<path d="M416 699 c-14 -12 -20 -28 -20 -56 0 -38 -1 -40 -25 -33 -20 5 -27
14 -29 38 -5 45 -32 43 -32 -1 0 -63 14 -67 221 -68 101 0 208 0 237 0 l52 1
0 65 c0 51 -3 65 -15 65 -11 0 -15 -12 -15 -49 0 -46 -2 -49 -27 -53 -56 -7
-64 -1 -61 50 3 39 0 47 -15 50 -15 3 -18 -2 -17 -30 4 -64 2 -68 -30 -68 -29
0 -30 1 -30 50 0 38 -4 50 -15 50 -11 0 -15 -12 -15 -49 0 -39 -4 -50 -19 -54
-29 -7 -39 5 -39 50 -1 24 -4 48 -7 53 -10 16 -75 8 -99 -11z m74 -49 c0 -36
-3 -40 -25 -40 -20 0 -45 24 -45 44 0 12 33 36 51 36 16 0 19 -7 19 -40z"/>
<path d="M1370 642 c0 -78 -13 -98 -54 -88 -21 5 -25 13 -28 49 -4 54 -22 55
-26 0 -2 -32 2 -47 17 -62 27 -27 71 -27 99 0 20 17 22 29 20 91 -2 46 -7 73
-15 76 -10 3 -13 -15 -13 -66z"/>
<path d="M650 525 c0 -8 7 -15 15 -15 8 0 15 7 15 15 0 8 -7 15 -15 15 -8 0
-15 -7 -15 -15z"/>
<path d="M695 530 c-7 -12 5 -17 40 -16 17 1 30 6 30 11 0 12 -63 17 -70 5z"/>
<path d="M780 525 c0 -8 7 -15 15 -15 8 0 15 7 15 15 0 8 -7 15 -15 15 -8 0
-15 -7 -15 -15z"/>
</g>
</svg>
